<svg width="254" height="137" viewBox="0 0 254 137" fill="none" xmlns="http://www.w3.org/2000/svg">
<path d="M251.499 2.00011C251.499 2.00011 253.999 29.5 227.499 36.4999C215.868 39.5724 213.499 38.9999 204.999 34.5C194.283 28.8268 186.175 21.7978 174.999 26.5C163.406 31.3776 171.328 49.5372 159.999 54.9999C145.658 61.9152 137.236 45.0294 122.5 38.9999C114.714 35.8144 110.094 34.6179 102.5 31C96.9003 28.3325 94.6104 24.5646 88.5001 23.5C78.6388 21.7818 73.033 27.2664 64.5002 32.5C43.8903 45.141 11.6177 73.3146 32.5004 85.4997C35.0692 86.9986 37.0531 86.8096 39.5003 88.4997C51.1972 96.5779 43.5853 121.579 29.5004 123.5C23.2551 124.351 19.1709 115.395 14.0005 119C10.1 121.719 13.2404 127.019 10.0005 130.499C7.55808 133.123 2.00053 134.999 2.00053 134.999" stroke="#EC0A03" stroke-width="4" stroke-linecap="round" stroke-linejoin="round"/>
</svg>
