<svg width="40" height="40" viewBox="0 0 40 40" fill="none" xmlns="http://www.w3.org/2000/svg">
<rect opacity="0.01" width="40" height="40" transform="matrix(-1 0 0 1 40 0)" fill="white"/>
<path d="M19.9783 38.728C17.6751 38.728 15.808 36.861 15.808 34.5578C15.808 32.2547 17.6751 30.3876 19.9783 30.3876C22.2814 30.3876 24.1484 32.2547 24.1484 34.5578C24.1484 36.861 22.2814 38.728 19.9783 38.728Z" fill="#E52A24"/>
<path fill-rule="evenodd" clip-rule="evenodd" d="M19.9786 31.4135C21.7153 31.4135 23.1232 32.8213 23.1232 34.558C23.1232 36.2947 21.7153 37.7025 19.9786 37.7025C18.242 37.7025 16.8341 36.2947 16.8341 34.558C16.8341 32.8213 18.242 31.4135 19.9786 31.4135ZM25.1745 34.558C25.1745 31.6884 22.8482 29.3621 19.9786 29.3621C17.1091 29.3621 14.7828 31.6884 14.7828 34.558C14.7828 37.4276 17.1091 39.7538 19.9786 39.7538C22.8482 39.7538 25.1745 37.4276 25.1745 34.558Z" fill="#FDFDFD"/>
<path fill-rule="evenodd" clip-rule="evenodd" d="M20.9896 21.9514H19.1296V33.8215H20.9896V21.9514Z" fill="#3E4958"/>
<path d="M19.9778 22.4644C13.9897 22.4644 9.13533 17.6101 9.13533 11.6219C9.13533 5.63377 13.9897 0.779419 19.9778 0.779419C25.966 0.779419 30.8203 5.63377 30.8203 11.6219C30.8203 17.6101 25.966 22.4644 19.9778 22.4644Z" fill="#E52A24"/>
<path fill-rule="evenodd" clip-rule="evenodd" d="M19.978 1.2921C25.6829 1.2921 30.3077 5.91686 30.3077 11.6218C30.3077 17.3267 25.6829 21.9515 19.978 21.9515C14.2731 21.9515 9.6484 17.3267 9.6484 11.6218C9.6484 5.91686 14.2731 1.2921 19.978 1.2921ZM31.3333 11.6218C31.3333 5.35047 26.2494 0.266525 19.978 0.266525C13.7067 0.266525 8.62266 5.35047 8.62266 11.6218C8.62266 17.8933 13.7067 22.9771 19.978 22.9771C26.2494 22.9771 31.3333 17.8933 31.3333 11.6218Z" fill="#E52A24"/>
<path d="M19.9776 14.9581C18.1352 14.9581 16.6415 13.4644 16.6415 11.622C16.6415 9.77945 18.1352 8.28581 19.9776 8.28581C21.8202 8.28581 23.3138 9.77945 23.3138 11.622C23.3138 13.4644 21.8202 14.9581 19.9776 14.9581Z" fill="#F9FFFF"/>
</svg>
