<svg width="8" height="10" viewBox="0 0 8 10" fill="none" xmlns="http://www.w3.org/2000/svg">
<path d="M3.99999 0C2.93951 0.00122101 1.92283 0.412912 1.17296 1.14476C0.423083 1.87662 0.00125533 2.86887 4.25558e-06 3.90387C-0.00126588 4.74966 0.281815 5.57251 0.80582 6.24619C0.80582 6.24619 0.914911 6.38637 0.932729 6.4066L3.99999 9.93711L7.06871 6.40482C7.08471 6.38601 7.19416 6.24619 7.19416 6.24619L7.19453 6.24512C7.71827 5.57174 8.00122 4.74928 7.99998 3.90387C7.99873 2.86887 7.5769 1.87662 6.82703 1.14476C6.07716 0.412912 5.06047 0.00122101 3.99999 0ZM5.30908 5.67835L3.99999 4.86528L2.69091 5.67835L2.90909 4.2325L1.81818 3.25547L3.34545 3.07554L3.99999 1.77448L4.69526 3.07589L6.1818 3.25547L5.0909 4.2325L5.30908 5.67835Z" fill="#E52A24"/>
</svg>
